<svg width="92" height="35" viewBox="0 0 92 35" fill="none" xmlns="http://www.w3.org/2000/svg">
<path d="M3.97266 7.375H5.75391L9.42188 28H7.73438L7.05469 23.8164H2.92969L2.30859 28H0.65625L3.97266 7.375ZM6.82031 22.375L4.92188 10.7031H4.89844L3.15234 22.375H6.82031ZM17.0742 15.5664C17.0742 14.1914 17.0156 13.3359 16.8984 13C16.7812 12.6562 16.668 12.4023 16.5586 12.2383C16.3477 11.918 16.0664 11.7578 15.7148 11.7578C15.3633 11.7578 15.1016 11.7812 14.9297 11.8281C14.5078 11.9453 14.1953 12.2812 13.9922 12.8359C13.7969 13.3828 13.6992 14.3008 13.6992 15.5898V22.6094C13.6992 24.0859 13.8164 25.1289 14.0508 25.7383C14.293 26.3477 14.7461 26.6523 15.4102 26.6523C16.0742 26.6523 16.5156 26.3477 16.7344 25.7383C16.9609 25.1211 17.0742 24.0547 17.0742 22.5391V15.5664ZM11.9531 7.10547H13.6992V11.9219C13.7852 11.4531 14.0352 11.0508 14.4492 10.7148C14.8633 10.3711 15.3125 10.1992 15.7969 10.1992C17.1953 10.1992 18.0859 10.957 18.4688 12.4727C18.7031 13.4414 18.8203 14.6641 18.8203 16.1406V22.2578C18.8203 24.2656 18.668 25.6602 18.3633 26.4414C18.0586 27.2148 17.6406 27.7109 17.1094 27.9297C16.8125 28.0547 16.4609 28.1211 16.0547 28.1289C14.9062 28.1289 14.1211 27.6406 13.6992 26.6641V28H11.9531V7.10547Z" fill="#CBF591"/>
<path d="M23.6135 22.1171L30 27.5L36.4517 22.0622C38.3737 20.4422 38.5284 17.5358 36.7892 15.7209C35.2924 14.1589 32.8757 13.933 31.1152 15.1904L30.1818 15.8571L28.8997 15.0176C27.1133 13.848 24.7471 14.1177 23.2698 15.6593C21.4987 17.5075 21.6562 20.4674 23.6135 22.1171Z" stroke="#CBF591" stroke-width="2"/>
<path d="M46.2188 10.4219H48.6328V28H46.2188V26.207C46.0312 26.8008 45.707 27.2891 45.2461 27.6719C44.793 28.0469 44.1797 28.2344 43.4062 28.2344C42.6406 28.2344 41.9805 27.918 41.4258 27.2852C40.8789 26.6445 40.6055 25.6641 40.6055 24.3438V10.4219H43.0078V24.0742C43.0078 25.457 43.5117 26.1484 44.5195 26.1484C45.082 26.1484 45.5039 25.9531 45.7852 25.5625C46.0742 25.1719 46.2188 24.6562 46.2188 24.0156V10.4219ZM52.4883 7.375H54.8906V10.5625H56.7891V12.3438H54.8906V25.1758C54.8906 25.6289 54.9961 25.9141 55.207 26.0312C55.418 26.1406 55.9531 26.1953 56.8125 26.1953V28.1055H55.1602C54.0508 28.1055 53.3281 27.9062 52.9922 27.5078C52.6562 27.1016 52.4883 26.3945 52.4883 25.3867V12.3438H50.8828V10.5625H52.4883V7.375ZM64.9688 28V7.375H68.8711L71.8008 22.4453L74.5547 7.375H78.4805V28H75.6797V20.3125L75.7969 13.2578L73.0195 27.9062H70.5234L67.6289 13.2578L67.7461 20.3125V28H64.9688ZM85.6875 28.2109C83.7109 28.2109 82.4375 27.457 81.8672 25.9492C81.5078 24.9883 81.3281 23.7227 81.3281 22.1523V15.6016C81.3281 12.0078 82.8242 10.2109 85.8164 10.2109C87.4102 10.2109 88.5117 10.6836 89.1211 11.6289C89.7383 12.5742 90.0469 13.918 90.0469 15.6602V19.4219H84.457V22.8789C84.457 24.0977 84.5625 24.875 84.7734 25.2109C84.9844 25.5391 85.3008 25.7031 85.7227 25.7031C86.1445 25.7031 86.418 25.6055 86.543 25.4102C86.7539 25.0664 86.875 24.7148 86.9062 24.3555C86.9375 23.9961 86.9531 23.5039 86.9531 22.8789V21.332H90.0234V22.2695C90.0234 23.8633 89.8984 25.0078 89.6484 25.7031C89.3984 26.3984 89.1094 26.9023 88.7812 27.2148C88.0938 27.8789 87.0625 28.2109 85.6875 28.2109ZM84.4453 17.6055H86.9531V15.3555C86.9531 14.3945 86.875 13.707 86.7188 13.293C86.5703 12.8711 86.2617 12.6602 85.793 12.6602C85.7852 12.6602 85.7812 12.6602 85.7812 12.6602C84.9688 12.6602 84.5312 13.2812 84.4688 14.5234C84.4531 14.7578 84.4453 15.0625 84.4453 15.4375V17.6055Z" fill="#CBF591"/>
</svg>
